<svg xmlns="http://www.w3.org/2000/svg" width="32" height="32" viewBox="0 0 24 24">
  <defs>
    <linearGradient id="logoGradient" x1="0%" y1="0%" x2="100%" y2="100%">
      <stop offset="0%" stop-color="#6366f1" />
      <stop offset="100%" stop-color="#8b5cf6" />
    </linearGradient>
    <filter id="shadow" x="-20%" y="-20%" width="140%" height="140%">
      <feDropShadow dx="0" dy="1" stdDeviation="0.5" flood-color="#000" flood-opacity="0.3"/>
    </filter>
  </defs>
  <g filter="url(#shadow)">
    <path fill="url(#logoGradient)" d="M20 3H4c-1.1 0-2 .9-2 2v14c0 1.1.9 2 2 2h16c1.1 0 2-.9 2-2V5c0-1.1-.9-2-2-2zm0 16H4V5h16v14z"/>
    <path fill="white" opacity="0.9" d="M16 10.8l-3.55 2.15c-.12.07-.25.07-.35 0L8.5 10.8c-.14-.08-.14-.27 0-.35l3.6-2.18c.12-.07.25-.07.35 0l3.55 2.18c.14.08.14.27 0 .35z"/>
    <path fill="white" opacity="0.7" d="M8 14h8v1H8z"/>
    <path fill="white" opacity="0.8" d="M8 12h8v1H8z"/>
    <circle cx="12" cy="7.5" r="1" fill="white"/>
  </g>
</svg> 